<svg width="1495" height="480" viewBox="0 0 1495 480" fill="none" xmlns="http://www.w3.org/2000/svg">
<path d="M283.514 237.435L235.763 286.068L111.403 163.964L159.155 115.33L283.514 237.435Z" fill="#FFDE17"/>
<path d="M138.708 136.155L263.398 257.922L283.515 237.434L159.156 115.329L138.708 136.155Z" fill="#DBBF00"/>
<path d="M90.4674 46.0452L42.7161 94.6785L31.4502 83.6173L79.2015 34.984L90.4674 46.0452Z" fill="#FFDE17"/>
<path d="M59.084 55.4717L70.3499 66.5328L90.4669 46.0446L79.201 34.9835L59.084 55.4717Z" fill="#DBBF00"/>
<path d="M480.75 431.095L467.007 457.843C442.001 484.079 432.999 479.731 432.999 479.731L235.34 285.653L283.091 237.02L480.75 431.095Z" fill="#414042"/>
<path d="M262.947 257.537L467.008 457.844C479.943 444.648 480.751 431.096 480.751 431.096L283.091 237.02L262.947 257.537Z" fill="#231F20"/>
<path d="M198.35 57.5559C204.799 63.888 204.894 74.2522 198.561 80.702L81.177 200.253C74.8449 206.702 64.4807 206.798 58.0315 200.465L5.8218 149.202C-0.629596 142.868 -0.722975 132.504 5.60861 126.055L122.993 6.50379C129.325 0.0540749 139.688 -0.0415512 146.14 6.29285L198.35 57.5559Z" fill="#808285"/>
<path d="M65.9216 70.4213C45.5381 91.1806 36.1875 94.9128 36.1875 94.9128L90.2754 39.8253C90.2754 39.8253 86.3035 49.6625 65.9216 70.4213Z" fill="#231F20"/>
<path d="M146.529 143.84L119.228 171.645L114.156 166.666L141.457 138.861L146.529 143.84Z" fill="#DBBF00"/>
<path d="M166.868 122.901L146.417 143.73L141.457 138.86L161.909 118.031L166.868 122.901Z" fill="#BD9C00"/>
<path d="M172.559 32.2341L198.349 57.5559C204.798 63.888 204.893 74.2522 198.56 80.702L81.176 200.253C74.8439 206.702 64.4796 206.798 58.0305 200.465L32.2412 175.144C32.2412 175.144 63.7 151.512 107.25 107.157C150.797 62.8063 172.559 32.2341 172.559 32.2341Z" fill="#414042"/>
<path d="M135.16 139.482C114.977 160.037 111.481 169.389 111.481 169.389L165.036 114.846C165.036 114.846 155.341 118.928 135.16 139.482Z" fill="#231F20"/>
<path d="M198.657 80.6047C204.991 74.155 206.587 62.0678 200.138 55.7357L147.929 4.47268C141.477 -1.86172 129.422 -0.0431428 123.089 6.40657C129.422 -0.0431428 138.873 0.791072 145.324 7.12547L197.533 58.3879C203.983 64.7206 204.991 74.155 198.657 80.6047Z" fill="#A7A9AC"/>
<path d="M81.1703 200.262C74.8382 206.711 62.7819 208.53 56.3328 202.198L4.12309 150.935C-2.32831 144.6 -0.730223 132.513 5.60249 126.064C-0.730223 132.513 0.27554 141.948 6.72694 148.283L58.9366 199.546C65.3858 205.878 74.8382 206.711 81.1703 200.262Z" fill="#A7A9AC"/>
<path d="M6.72694 148.281C0.27554 141.946 -0.730223 132.512 5.60249 126.062C-0.730223 132.512 -2.32831 144.599 4.12309 150.933L30.2966 176.631L33.2784 174.351L6.72694 148.281Z" fill="#D1D3D4"/>
<path d="M145.324 7.12521C138.873 0.790814 129.422 -0.0434005 123.089 6.40631C129.422 -0.0434005 141.478 -1.86308 147.93 4.47132L174.103 30.17L171.875 33.1952L145.324 7.12521Z" fill="#D1D3D4"/>
<path d="M314.075 259.912L271.019 216.256L382.651 106.156L425.708 149.813L314.075 259.912Z" fill="#FFDE17"/>
<path d="M407.269 131.116L295.936 241.52L314.075 259.912L425.708 149.812L407.269 131.116Z" fill="#DBBF00"/>
<path d="M400.996 137.324L376.366 112.351L380.207 108.563L404.836 133.536L400.996 137.324Z" fill="#58595B"/>
<path d="M419.424 156.008L400.982 137.31L404.823 133.522L423.264 152.22L419.424 156.008Z" fill="#231F20"/>
<path d="M97.9614 478.432L70.376 462.362C43.757 436.091 47.7452 427.52 47.7452 427.52L263.953 215.96L314.169 266.876L97.9614 478.432Z" fill="#414042"/>
<path d="M292.503 244.908L70.376 462.362C83.7766 475.924 97.9614 478.432 97.9614 478.432L314.168 266.876L292.503 244.908Z" fill="#231F20"/>
<path d="M396.43 141.799L371.813 116.839L376.366 112.35L400.982 137.309L396.43 141.799Z" fill="#DBBF00"/>
<path d="M414.972 160.398L396.532 141.702L400.984 137.312L419.423 156.007L414.972 160.398Z" fill="#BD9C00"/>
<path d="M263.954 215.96L271.019 216.254L295.936 241.519L292.504 244.907L263.954 215.96Z" fill="#808285"/>
<path d="M314.168 266.875L314.074 259.91L295.935 241.519L292.503 244.907L314.168 266.875Z" fill="#414042"/>
<path d="M429.994 60.0673L338.163 1.89104L319.971 19.8334L380.509 108.873L475.575 205.261L518.317 163.106L460.789 91.2915L429.994 60.0673Z" fill="#414042"/>
<path d="M460.79 91.2891L518.65 162.775L525.062 156.453L460.79 91.2891Z" fill="#939598"/>
<path d="M482.658 208.073L475.575 205.259L525.062 156.454L527.773 163.575L482.658 208.073Z" fill="#939598"/>
<path d="M500.316 180.855L525.061 156.454L527.772 163.575L505.216 185.823L500.316 180.855Z" fill="#A7A9AC"/>
<path d="M411.304 140.096L481.923 198.998L475.574 205.261L411.304 140.096Z" fill="#231F20"/>
<path d="M319.971 19.8311L317.984 17.1508L335.374 -0.000106544L338.163 1.8888L319.971 19.8311Z" fill="#939598"/>
<path d="M338.163 1.88997L429.994 60.0662L460.789 91.2905L518.711 162.717L500.317 180.856C500.317 180.856 487.813 162.076 432.519 106.011C382.651 55.4492 330.887 9.06645 330.887 9.06645L338.163 1.88997Z" fill="#808285"/>
<path d="M448.584 83.854C432.329 67.3725 429.651 59.7179 429.651 59.7179L472.787 103.453C472.787 103.453 464.84 100.336 448.584 83.854Z" fill="#231F20"/>
<path d="M319.971 19.8311L317.984 17.1508L328.577 6.7039L330.886 9.06582L319.971 19.8311Z" fill="#6D6E71"/>
<path d="M475.575 205.261L474.931 204.608L524.414 155.803L525.061 156.456L475.575 205.261Z" fill="#58595B"/>
<path d="M332.668 170.012L332.665 170.01C324.774 165.096 317.103 161.621 309.668 158.254C309.386 158.126 309.104 157.998 308.822 157.871C301.101 154.372 293.635 150.933 286.182 146.014C281.667 142.955 276.172 137.7 270.373 131.485C264.595 125.291 258.617 118.254 253.142 111.718L250.097 108.082L249.619 112.8C248.573 123.127 246.491 130.25 243.855 135.485C241.238 140.683 238.025 144.123 234.537 147.033C222.966 156.108 214.737 160.332 205.568 165.038C202.601 166.56 199.536 168.133 196.228 169.938C184.734 175.848 122.773 212.868 122.773 292.463C122.773 372.151 189.782 430.731 264.083 430.731C338.364 430.731 402.96 376.734 402.96 294.899C402.958 213.903 343.569 176.819 332.948 170.187C332.851 170.126 332.757 170.068 332.668 170.012Z" fill="#00598E" stroke="#192849" stroke-width="4"/>
<path d="M306.901 360.564C311.767 360.564 316.939 360.866 320.591 363.302C324.24 365.734 326.37 371.21 327.585 374.251C328.801 377.294 327.585 379.116 325.151 380.332C323.025 381.55 322.72 380.941 320.591 376.989C318.462 373.035 316.634 369.079 305.99 369.079C295.344 369.079 291.997 372.731 286.827 376.989C281.657 381.248 279.83 382.768 278.005 380.332C276.18 377.9 276.79 375.466 280.134 372.423C283.479 369.381 288.956 364.515 294.126 362.386C299.298 360.259 302.036 360.564 306.901 360.564ZM256.41 395.239C262.494 400.104 271.617 404.058 291.085 404.058C310.553 404.058 324.238 398.584 330.324 394.023C333.062 391.892 334.278 393.719 334.582 394.934C334.887 396.15 335.496 397.977 333.366 400.104C331.846 401.627 317.855 411.36 301.43 412.88C285.002 414.4 262.801 415.314 249.416 403.147C247.287 401.018 247.896 397.977 249.416 396.762C250.939 395.546 252.154 394.63 253.979 394.63C255.804 394.63 255.497 394.627 256.41 395.239Z" fill="white"/>
<path d="M181.889 372.119C205.003 371.817 209.262 367.86 229.641 358.737C339.752 309.461 360.129 264.447 364.085 254.103C368.039 243.758 373.818 227.031 367.735 208.474C366.771 205.575 365.886 202.65 365.083 199.703C350.452 183.342 335.925 174.413 331.537 171.672C315.721 161.635 300.207 157.681 284.997 147.644C275.569 141.56 262.491 126.046 251.541 112.969C249.409 133.954 243.328 142.779 235.722 148.555C220.21 160.724 210.478 164.373 197.093 171.672C185.843 177.756 124.705 213.953 124.705 292.427C124.705 317.484 131.433 340.431 142.98 360.059L145.995 359.952C152.383 365.734 162.423 372.423 181.889 372.119Z" fill="#0073BA"/>
<path d="M331.54 171.674C315.723 161.637 300.209 157.683 285 147.646C275.572 141.562 262.494 126.048 251.543 112.971C249.411 133.956 243.331 142.781 235.724 148.557C220.213 160.726 210.48 164.375 197.095 171.674C185.843 177.755 124.705 213.953 124.705 292.427C124.705 317.483 131.433 340.43 142.98 360.058C167.598 401.913 214.112 428.693 264.012 428.693C337.318 428.693 400.89 375.463 400.89 294.858C400.89 250.595 382.911 219.633 365.085 199.703C350.454 183.343 335.927 174.415 331.54 171.674ZM368.514 207.281C388.482 232.248 398.611 261.713 398.611 294.86C398.611 314.097 394.946 332.266 387.72 348.869C380.906 364.567 370.918 378.685 358.385 390.338C333.456 413.605 299.94 426.416 264.012 426.416C246.239 426.416 228.799 423.021 212.17 416.323C195.962 409.827 181.125 400.33 168.438 388.333C141.706 363.068 126.984 329.01 126.984 292.429C126.984 259.85 137.559 230.901 158.418 206.382C174.351 187.655 191.535 177.275 198.182 173.682C201.221 172.035 204.282 170.43 207.364 168.865C216.541 164.155 225.21 159.706 237.133 150.351C243.49 145.522 250.264 137.867 253.147 118.435C263.197 130.383 274.856 143.814 283.764 149.559C291.672 154.782 299.783 158.439 307.628 161.975C315.046 165.322 322.72 168.781 330.311 173.601L330.598 173.778C352.799 187.635 364.623 202.421 368.514 207.281Z" fill="#004975"/>
<path d="M253.063 119.052C257.321 131.523 256.712 137.911 256.712 140.649C256.712 143.388 255.19 150.689 250.322 154.336C248.193 155.859 247.586 157.075 247.586 157.379C247.586 158.595 250.322 159.508 250.322 162.244C250.322 165.592 248.802 172.284 232.681 188.405C216.558 204.525 193.443 218.821 175.498 227.64C157.552 236.459 149.035 235.855 146.602 231.597C144.168 227.338 147.513 217.91 158.768 205.439C170.024 192.968 205.61 175.02 205.61 175.02L250.02 143.997L252.451 132.132" fill="#93C5E4"/>
<path d="M253.063 118.748C250.325 138.825 244.242 144.908 236.029 151.293C222.34 161.638 208.958 168.023 205.917 169.543C198.009 173.497 169.417 189.316 154.512 212.129C149.949 219.123 154.512 221.862 155.424 222.468C156.337 223.077 166.679 224.293 188.883 210.911C211.089 197.526 220.822 189.618 233.293 176.538C239.986 169.543 240.897 165.589 240.897 163.762C240.897 161.635 239.374 160.722 236.943 160.112C235.725 159.808 235.42 159.199 236.943 158.288C238.463 157.377 244.848 154.334 246.371 153.118C247.894 151.902 255.193 147.037 255.497 139.127C255.799 131.219 255.193 125.742 253.063 118.748ZM184.627 339.878C184.931 316.151 207.135 293.947 235.12 293.643C270.707 293.341 295.344 328.927 313.292 328.622C328.497 328.323 357.697 298.513 371.996 298.513C387.203 298.513 391.464 314.329 391.464 323.76C391.464 333.188 388.421 350.222 381.119 360.866C373.821 371.515 369.257 375.467 360.743 374.857C349.794 373.946 327.893 339.878 313.899 339.271C296.26 338.662 257.931 376.073 227.819 376.073C209.572 376.073 204.095 373.337 198.012 369.381C188.883 362.998 184.322 353.263 184.627 339.878Z" fill="white"/>
<path d="M632.124 235V97.1H694.77C709.742 97.1 722.941 99.9893 734.367 105.768C745.793 111.415 754.724 119.361 761.159 129.605C767.595 139.849 770.812 151.997 770.812 166.05C770.812 179.971 767.595 192.12 761.159 202.495C754.724 212.739 745.793 220.75 734.367 226.529C722.941 232.176 709.742 235 694.77 235H632.124ZM664.038 208.799H693.194C702.388 208.799 710.333 207.092 717.031 203.677C723.861 200.131 729.114 195.14 732.791 188.705C736.6 182.27 738.504 174.718 738.504 166.05C738.504 157.251 736.6 149.699 732.791 143.395C729.114 136.96 723.861 132.035 717.031 128.62C710.333 125.074 702.388 123.301 693.194 123.301H664.038V208.799ZM794.88 235V97.1H854.571C866.917 97.1 877.555 99.1357 886.485 103.207C895.416 107.147 902.311 112.86 907.17 120.346C912.03 127.832 914.459 136.763 914.459 147.138C914.459 157.382 912.03 166.247 907.17 173.733C902.311 181.088 895.416 186.735 886.485 190.675C877.555 194.615 866.917 196.585 854.571 196.585H812.61L826.794 182.598V235H794.88ZM882.545 235L848.07 184.962H882.151L917.02 235H882.545ZM826.794 186.144L812.61 171.172H852.798C862.648 171.172 870.003 169.071 874.862 164.868C879.722 160.534 882.151 154.624 882.151 147.138C882.151 139.521 879.722 133.611 874.862 129.408C870.003 125.205 862.648 123.104 852.798 123.104H812.61L826.794 107.935V186.144ZM1001.01 237.364C981.443 237.364 966.143 231.914 955.111 221.013C944.079 210.112 938.563 194.549 938.563 174.324V97.1H970.477V173.142C970.477 186.275 973.169 195.731 978.554 201.51C983.938 207.289 991.49 210.178 1001.21 210.178C1010.93 210.178 1018.48 207.289 1023.86 201.51C1029.25 195.731 1031.94 186.275 1031.94 173.142V97.1H1063.46V174.324C1063.46 194.549 1057.94 210.112 1046.91 221.013C1035.88 231.914 1020.58 237.364 1001.01 237.364ZM1095 235V97.1H1154.69C1167.03 97.1 1177.67 99.1357 1186.6 103.207C1195.53 107.147 1202.43 112.86 1207.29 120.346C1212.15 127.832 1214.58 136.763 1214.58 147.138C1214.58 157.382 1212.15 166.247 1207.29 173.733C1202.43 181.219 1195.53 186.998 1186.6 191.069C1177.67 195.009 1167.03 196.979 1154.69 196.979H1112.73L1126.91 182.598V235H1095ZM1126.91 186.144L1112.73 170.975H1152.92C1162.77 170.975 1170.12 168.874 1174.98 164.671C1179.84 160.468 1182.27 154.624 1182.27 147.138C1182.27 139.521 1179.84 133.611 1174.98 129.408C1170.12 125.205 1162.77 123.104 1152.92 123.104H1112.73L1126.91 107.935V186.144ZM1212.31 235L1273.77 97.1H1305.29L1366.96 235H1333.47L1283.03 113.254H1295.64L1245.01 235H1212.31ZM1243.04 205.45L1251.51 181.219H1322.43L1331.1 205.45H1243.04ZM1381.26 235V97.1H1413.18V208.996H1482.32V235H1381.26ZM667.033 348.3H740.953V376.9H667.033V348.3ZM669.673 433H634.033V279H750.413V307.6H669.673V433ZM866.537 435.64C854.364 435.64 843.071 433.66 832.657 429.7C822.391 425.74 813.444 420.167 805.817 412.98C798.337 405.793 792.471 397.36 788.217 387.68C784.111 378 782.057 367.44 782.057 356C782.057 344.56 784.111 334 788.217 324.32C792.471 314.64 798.411 306.207 806.037 299.02C813.664 291.833 822.611 286.26 832.877 282.3C843.144 278.34 854.291 276.36 866.317 276.36C878.491 276.36 889.637 278.34 899.757 282.3C910.024 286.26 918.897 291.833 926.377 299.02C934.004 306.207 939.944 314.64 944.197 324.32C948.451 333.853 950.577 344.413 950.577 356C950.577 367.44 948.451 378.073 944.197 387.9C939.944 397.58 934.004 406.013 926.377 413.2C918.897 420.24 910.024 425.74 899.757 429.7C889.637 433.66 878.564 435.64 866.537 435.64ZM866.317 405.28C873.211 405.28 879.517 404.107 885.237 401.76C891.104 399.413 896.237 396.04 900.637 391.64C905.037 387.24 908.411 382.033 910.757 376.02C913.251 370.007 914.497 363.333 914.497 356C914.497 348.667 913.251 341.993 910.757 335.98C908.411 329.967 905.037 324.76 900.637 320.36C896.384 315.96 891.324 312.587 885.457 310.24C879.591 307.893 873.211 306.72 866.317 306.72C859.424 306.72 853.044 307.893 847.177 310.24C841.457 312.587 836.397 315.96 831.997 320.36C827.597 324.76 824.151 329.967 821.657 335.98C819.311 341.993 818.137 348.667 818.137 356C818.137 363.187 819.311 369.86 821.657 376.02C824.151 382.033 827.524 387.24 831.777 391.64C836.177 396.04 841.311 399.413 847.177 401.76C853.044 404.107 859.424 405.28 866.317 405.28ZM996.062 433V279H1062.72C1076.51 279 1088.39 281.273 1098.36 285.82C1108.34 290.22 1116.04 296.6 1121.46 304.96C1126.89 313.32 1129.6 323.293 1129.6 334.88C1129.6 346.32 1126.89 356.22 1121.46 364.58C1116.04 372.793 1108.34 379.1 1098.36 383.5C1088.39 387.9 1076.51 390.1 1062.72 390.1H1015.86L1031.7 374.48V433H996.062ZM1093.96 433L1055.46 377.12H1093.52L1132.46 433H1093.96ZM1031.7 378.44L1015.86 361.72H1060.74C1071.74 361.72 1079.96 359.373 1085.38 354.68C1090.81 349.84 1093.52 343.24 1093.52 334.88C1093.52 326.373 1090.81 319.773 1085.38 315.08C1079.96 310.387 1071.74 308.04 1060.74 308.04H1015.86L1031.7 291.1V378.44ZM1250.9 435.64C1238.73 435.64 1227.51 433.733 1217.24 429.92C1207.12 425.96 1198.25 420.387 1190.62 413.2C1183.14 406.013 1177.27 397.58 1173.02 387.9C1168.91 378.22 1166.86 367.587 1166.86 356C1166.86 344.413 1168.91 333.78 1173.02 324.1C1177.27 314.42 1183.21 305.987 1190.84 298.8C1198.47 291.613 1207.41 286.113 1217.68 282.3C1227.95 278.34 1239.24 276.36 1251.56 276.36C1265.2 276.36 1277.45 278.633 1288.3 283.18C1299.3 287.727 1308.54 294.327 1316.02 302.98L1293.14 324.1C1287.57 318.233 1281.48 313.907 1274.88 311.12C1268.28 308.187 1261.09 306.72 1253.32 306.72C1245.84 306.72 1239.02 307.893 1232.86 310.24C1226.7 312.587 1221.35 315.96 1216.8 320.36C1212.4 324.76 1208.95 329.967 1206.46 335.98C1204.11 341.993 1202.94 348.667 1202.94 356C1202.94 363.187 1204.11 369.787 1206.46 375.8C1208.95 381.813 1212.4 387.093 1216.8 391.64C1221.35 396.04 1226.63 399.413 1232.64 401.76C1238.8 404.107 1245.55 405.28 1252.88 405.28C1259.92 405.28 1266.74 404.18 1273.34 401.98C1280.09 399.633 1286.61 395.747 1292.92 390.32L1313.16 416.06C1304.8 422.367 1295.05 427.207 1283.9 430.58C1272.9 433.953 1261.9 435.64 1250.9 435.64ZM1280.6 411.44V353.58H1313.16V416.06L1280.6 411.44ZM1397.75 341.04H1471.89V368.76H1397.75V341.04ZM1400.39 404.4H1484.21V433H1364.97V279H1481.35V307.6H1400.39V404.4Z" fill="#231F20"/>
</svg>
